<?xml version="1.0" standalone="no"?>
<!DOCTYPE svg PUBLIC "-//W3C//DTD SVG 20010904//EN"
 "http://www.w3.org/TR/2001/REC-SVG-20010904/DTD/svg10.dtd">
<svg version="1.0" xmlns="http://www.w3.org/2000/svg"
 width="512.000000pt" height="512.000000pt" viewBox="0 0 512.000000 512.000000"
 preserveAspectRatio="xMidYMid meet">
<metadata>
Created by potrace 1.14, written by Peter Selinger 2001-2017
</metadata>
<g transform="translate(0.000000,512.000000) scale(0.100000,-0.100000)"
fill="#000000" stroke="none">
<path d="M1221 3487 c-30 -7 -61 -49 -61 -81 0 -30 23 -65 50 -76 17 -7 88
-11 176 -11 255 0 250 4 334 -284 33 -115 70 -239 80 -275 11 -36 51 -175 90
-310 74 -254 94 -326 130 -447 37 -124 104 -202 208 -242 56 -22 1194 -25
1267 -3 79 22 154 84 193 159 27 51 264 851 267 902 5 84 -37 154 -115 189
-31 15 -135 17 -975 18 -517 2 -945 3 -951 3 -7 1 -22 36 -34 79 -12 42 -27
98 -35 124 -38 137 -125 227 -245 253 -48 11 -341 12 -379 2z"/>
<path d="M2352 1605 c-67 -31 -110 -79 -129 -144 -79 -274 298 -420 430 -167
28 55 28 146 -1 201 -57 112 -191 161 -300 110z"/>
<path d="M3206 1618 c-106 -23 -181 -120 -177 -230 6 -170 181 -277 331 -202
87 43 130 112 130 209 0 152 -134 257 -284 223z"/>
</g>
</svg>
